# xmcd
#
# Track frame offsets: 
#        150
#        27104
#        44330
#        59225
#        79766
#        92879
#        111389
#        129772
#        149087
#        179619
#        198643
#        216882
#
# Disc length: 2983 seconds
#
# Revision: 2
# Processed by: cddbd v1.5.2PL0 Copyright (c) Steve Scherf et al.
# Submitted via: ExactAudioCopy v0.95b4
#
DISCID=bb0ba50c
DTITLE=Coctail Lounge Music - Ellizium
DYEAR=2004
DGENRE=
TTITLE0=Cocktail Mood. - Brazil Sumer.
TTITLE1=Les Hommes. - Pasada Do Amore.
TTITLE2=Etienne De Crecy. - Tempovision.
TTITLE3=Soha. - Gardens..
TTITLE4=Williams Traffic. - La Fugitive.
TTITLE5=Zimpala Featuring. - Sugar.
TTITLE6=Doctorolive. - The Rhitm Of Life.
TTITLE7=Dj Roussia and Les Malones. - Bad Weather.
TTITLE8=Mondomo. - Panso Ascoltando.
TTITLE9=Gerardo Frisina. - Mas Eu Quer Ser.
TTITLE10=Soultance. - Nucleus.
TTITLE11=Coco Suma. - Interlude.
EXTD=
EXTT0=
EXTT1=
EXTT2=
EXTT3=
EXTT4=
EXTT5=
EXTT6=
EXTT7=
EXTT8=
EXTT9=
EXTT10=
EXTT11=
PLAYORDER=
